my_project.ufo
<glyph name="A" format="2">
	<unicode hex="0041"/>
	<advance width="544"/>
	<outline>
		<contour>
			<point x="552" y="0" type="line"/>
			<point x="641" y="0" type="line"/>
			<point x="419" y="656" type="line"/>
			<point x="325" y="656" type="line"/>
			<point x="103" y="0" type="line"/>
			<point x="188" y="0" type="line"/>
			<point x="251" y="200" type="line"/>
			<point x="490" y="200" type="line"/>
		</contour>
		<contour>
			<point x="303" y="367" type="line"/>
			<point x="327" y="440"/>
			<point x="348" y="512"/>
			<point x="368" y="588" type="curve"/>
			<point x="372" y="588" type="line"/>
			<point x="393" y="512"/>
			<point x="414" y="440"/>
			<point x="438" y="367" type="curve"/>
			<point x="469" y="267" type="line"/>
			<point x="272" y="267" type="line"/>
		</contour>
	</outline>
</glyph>
<glyph name="B" format="2">
	<unicode hex="0042"/>
	<advance width="588"/>
	<outline>
		<contour>
			<point x="190" y="0" type="line"/>
			<point x="399" y="0" type="line" smooth="yes"/>
			<point x="546" y="0"/>
			<point x="648" y="80"/>
			<point x="648" y="192" type="curve" smooth="yes"/>
			<point x="648" y="304"/>
			<point x="592" y="334"/>
			<point x="496" y="349" type="curve"/>
			<point x="496" y="353" type="line"/>
			<point x="573" y="373"/>
			<point x="610" y="355"/>
			<point x="610" y="496" type="curve" smooth="yes"/>
			<point x="610" y="637"/>
			<point x="518" y="656"/>
			<point x="385" y="656" type="curve" smooth="yes"/>
			<point x="190" y="656" type="line"/>
		</contour>
		<contour>
			<point x="273" y="376" type="line"/>
			<point x="273" y="590" type="line"/>
			<point x="374" y="590" type="line" smooth="yes"/>
			<point x="476" y="590"/>
			<point x="528" y="579"/>
			<point x="528" y="489" type="curve" smooth="yes"/>
			<point x="528" y="399"/>
			<point x="482" y="376"/>
			<point x="370" y="376" type="curve" smooth="yes"/>
		</contour>
		<contour>
			<point x="273" y="66" type="line"/>
			<point x="273" y="314" type="line"/>
			<point x="387" y="314" type="line" smooth="yes"/>
			<point x="502" y="314"/>
			<point x="566" y="304"/>
			<point x="566" y="186" type="curve" smooth="yes"/>
			<point x="566" y="68"/>
			<point x="500" y="66"/>
			<point x="387" y="66" type="curve" smooth="yes"/>
		</contour>
	</outline>
</glyph>
<glyph name="C" format="2">
	<unicode hex="0043"/>
	<advance width="571"/>
	<outline>
		<contour>
			<point x="152" y="328" type="curve"/>
			<point x="152" y="114"/>
			<point x="274" y="-12"/>
			<point x="439" y="-12" type="curve"/>
			<point x="523" y="-12"/>
			<point x="587" y="23"/>
			<point x="639" y="83" type="curve"/>
			<point x="592" y="134" type="line"/>
			<point x="550" y="87"/>
			<point x="504" y="61"/>
			<point x="441" y="61" type="curve"/>
			<point x="317" y="61"/>
			<point x="238" y="165"/>
			<point x="238" y="330" type="curve"/>
			<point x="238" y="493"/>
			<point x="320" y="595"/>
			<point x="445" y="595" type="curve"/>
			<point x="500" y="595"/>
			<point x="542" y="571"/>
			<point x="576" y="534" type="curve"/>
			<point x="623" y="587" type="line"/>
			<point x="585" y="630"/>
			<point x="523" y="668"/>
			<point x="444" y="668" type="curve"/>
			<point x="276" y="668"/>
			<point x="152" y="539"/>
		</contour>
	</outline>
</glyph>
<glyph name="D" format="2">
	<unicode hex="0044"/>
	<advance width="615"/>
	<outline>
		<contour>
			<point x="190" y="0" type="line"/>
			<point x="358" y="0" type="line"/>
			<point x="556" y="0"/>
			<point x="664" y="75"/>
			<point x="664" y="331" type="curve" smooth="yes"/>
			<point x="664" y="587"/>
			<point x="556" y="656"/>
			<point x="354" y="656" type="curve"/>
			<point x="190" y="656" type="line"/>
		</contour>
		<contour>
			<point x="273" y="68" type="line"/>
			<point x="273" y="588" type="line"/>
			<point x="348" y="588" type="line"/>
			<point x="501" y="588"/>
			<point x="578" y="545"/>
			<point x="578" y="331" type="curve" smooth="yes"/>
			<point x="578" y="117"/>
			<point x="501" y="68"/>
			<point x="348" y="68" type="curve"/>
		</contour>
	</outline>
</glyph>
<glyph name="E" format="2">
	<unicode hex="0045"/>
	<advance width="527"/>
	<outline>
		<contour>
			<point x="190" y="0" type="line"/>
			<point x="578" y="0" type="line"/>
			<point x="578" y="71" type="line"/>
			<point x="273" y="71" type="line"/>
			<point x="273" y="309" type="line"/>
			<point x="522" y="309" type="line"/>
			<point x="522" y="380" type="line"/>
			<point x="273" y="380" type="line"/>
			<point x="273" y="586" type="line"/>
			<point x="568" y="586" type="line"/>
			<point x="568" y="656" type="line"/>
			<point x="190" y="656" type="line"/>
		</contour>
	</outline>
</glyph>
<glyph name="F" format="2">
	<unicode hex="0046"/>
	<advance width="494"/>
	<outline>
		<contour>
			<point x="190" y="0" type="line"/>
			<point x="273" y="0" type="line"/>
			<point x="273" y="294" type="line"/>
			<point x="523" y="294" type="line"/>
			<point x="523" y="364" type="line"/>
			<point x="273" y="364" type="line"/>
			<point x="273" y="586" type="line"/>
			<point x="568" y="586" type="line"/>
			<point x="568" y="656" type="line"/>
			<point x="190" y="656" type="line"/>
		</contour>
	</outline>
</glyph>
<glyph name="G" format="2">
	<unicode hex="0047"/>
	<advance width="617"/>
	<outline>
		<contour>
			<point x="152" y="328" type="curve"/>
			<point x="152" y="114"/>
			<point x="275" y="-12"/>
			<point x="447" y="-12" type="curve"/>
			<point x="535" y="-12"/>
			<point x="607" y="20"/>
			<point x="650" y="64" type="curve"/>
			<point x="650" y="340" type="line"/>
			<point x="435" y="340" type="line"/>
			<point x="435" y="271" type="line"/>
			<point x="574" y="271" type="line"/>
			<point x="574" y="100" type="line"/>
			<point x="548" y="76"/>
			<point x="503" y="61"/>
			<point x="456" y="61" type="curve"/>
			<point x="316" y="61"/>
			<point x="238" y="165"/>
			<point x="238" y="330" type="curve"/>
			<point x="238" y="493"/>
			<point x="323" y="595"/>
			<point x="455" y="595" type="curve"/>
			<point x="521" y="595"/>
			<point x="562" y="569"/>
			<point x="595" y="534" type="curve"/>
			<point x="642" y="587" type="line"/>
			<point x="604" y="627"/>
			<point x="544" y="668"/>
			<point x="454" y="668" type="curve"/>
			<point x="279" y="668"/>
			<point x="152" y="539"/>
		</contour>
	</outline>
</glyph>
<glyph name="H" format="2">
	<unicode hex="0048"/>
	<advance width="652"/>
	<outline>
		<contour>
			<point x="190" y="0" type="line"/>
			<point x="273" y="0" type="line"/>
			<point x="273" y="309" type="line"/>
			<point x="578" y="309" type="line"/>
			<point x="578" y="0" type="line"/>
			<point x="662" y="0" type="line"/>
			<point x="662" y="656" type="line"/>
			<point x="578" y="656" type="line"/>
			<point x="578" y="381" type="line"/>
			<point x="273" y="381" type="line"/>
			<point x="273" y="656" type="line"/>
			<point x="190" y="656" type="line"/>
		</contour>
	</outline>
</glyph>
<glyph name="J" format="2">
	<unicode hex="004A"/>
	<advance width="480"/>
	<outline>
		<contour>
			<point x="131" y="93" type="line"/>
			<point x="169" y="24"/>
			<point x="229" y="-12"/>
			<point x="312" y="-12" type="curve"/>
			<point x="440" y="-12"/>
			<point x="493" y="80"/>
			<point x="493" y="193" type="curve"/>
			<point x="493" y="656" type="line"/>
			<point x="409" y="656" type="line"/>
			<point x="409" y="201" type="line"/>
			<point x="409" y="101"/>
			<point x="374" y="61"/>
			<point x="304" y="61" type="curve"/>
			<point x="257" y="61"/>
			<point x="220" y="83"/>
			<point x="191" y="135" type="curve"/>
		</contour>
	</outline>
</glyph>
<glyph name="K" format="2">
	<unicode hex="004B"/>
	<advance width="579"/>
	<outline>
		<contour>
			<point x="190" y="0" type="line"/>
			<point x="273" y="0" type="line"/>
			<point x="273" y="208" type="line"/>
			<point x="386" y="341" type="line"/>
			<point x="582" y="0" type="line"/>
			<point x="675" y="0" type="line"/>
			<point x="438" y="406" type="line"/>
			<point x="643" y="656" type="line"/>
			<point x="549" y="656" type="line"/>
			<point x="276" y="327" type="line"/>
			<point x="273" y="327" type="line"/>
			<point x="273" y="656" type="line"/>
			<point x="190" y="656" type="line"/>
		</contour>
	</outline>
</glyph>
<glyph name="L" format="2">
	<unicode hex="004C"/>
	<advance width="486"/>
	<outline>
		<contour>
			<point x="190" y="0" type="line"/>
			<point x="560" y="0" type="line"/>
			<point x="560" y="71" type="line"/>
			<point x="273" y="71" type="line"/>
			<point x="273" y="656" type="line"/>
			<point x="190" y="656" type="line"/>
		</contour>
	</outline>
</glyph>
<glyph name="M" format="2">
	<unicode hex="004D"/>
	<advance width="727"/>
	<outline>
		<contour>
			<point x="190" y="0" type="line"/>
			<point x="267" y="0" type="line"/>
			<point x="267" y="361" type="line"/>
			<point x="267" y="419"/>
			<point x="260" y="497"/>
			<point x="256" y="555" type="curve"/>
			<point x="260" y="555" type="line"/>
			<point x="312" y="409" type="line"/>
			<point x="439" y="66" type="line"/>
			<point x="486" y="66" type="line"/>
			<point x="612" y="409" type="line"/>
			<point x="665" y="555" type="line"/>
			<point x="669" y="555" type="line"/>
			<point x="664" y="497"/>
			<point x="658" y="419"/>
			<point x="658" y="361" type="curve"/>
			<point x="658" y="0" type="line"/>
			<point x="737" y="0" type="line"/>
			<point x="737" y="656" type="line"/>
			<point x="639" y="656" type="line"/>
			<point x="513" y="304" type="line"/>
			<point x="467" y="170" type="line"/>
			<point x="463" y="170" type="line"/>
			<point x="415" y="304" type="line"/>
			<point x="288" y="656" type="line"/>
			<point x="190" y="656" type="line"/>
		</contour>
	</outline>
</glyph>
<glyph name="N" format="2">
	<unicode hex="004E"/>
	<advance width="647"/>
	<outline>
		<contour>
			<point x="190" y="0" type="line"/>
			<point x="269" y="0" type="line"/>
			<point x="269" y="343" type="line"/>
			<point x="269" y="412"/>
			<point x="263" y="482"/>
			<point x="258" y="548" type="curve"/>
			<point x="262" y="548" type="line"/>
			<point x="333" y="413" type="line"/>
			<point x="571" y="0" type="line"/>
			<point x="657" y="0" type="line"/>
			<point x="657" y="656" type="line"/>
			<point x="578" y="656" type="line"/>
			<point x="578" y="317" type="line"/>
			<point x="578" y="248"/>
			<point x="584" y="174"/>
			<point x="588" y="108" type="curve"/>
			<point x="584" y="108" type="line"/>
			<point x="513" y="244" type="line"/>
			<point x="276" y="656" type="line"/>
			<point x="190" y="656" type="line"/>
		</contour>
	</outline>
</glyph>
<glyph name="O" format="2">
	<unicode hex="004F"/>
	<advance width="664"/>
	<outline>
		<contour>
			<point x="332" y="-12" type="curve"/>
			<point x="497" y="-12"/>
			<point x="613" y="120"/>
			<point x="613" y="331" type="curve"/>
			<point x="613" y="540"/>
			<point x="497" y="668"/>
			<point x="332" y="668" type="curve"/>
			<point x="167" y="668"/>
			<point x="52" y="541"/>
			<point x="52" y="331" type="curve"/>
			<point x="52" y="120"/>
			<point x="167" y="-12"/>
		</contour>
		<contour>
			<point x="332" y="61" type="curve" smooth="yes"/>
			<point x="193" y="61"/>
			<point x="138" y="126"/>
			<point x="138" y="331" type="curve" smooth="yes"/>
			<point x="138" y="536"/>
			<point x="193" y="595"/>
			<point x="332" y="595" type="curve" smooth="yes"/>
			<point x="471" y="595"/>
			<point x="526" y="536"/>
			<point x="526" y="331" type="curve" smooth="yes"/>
			<point x="526" y="126"/>
			<point x="471" y="61"/>
		</contour>
	</outline>
</glyph>
<glyph name="P" format="2">
	<unicode hex="0050"/>
	<advance width="576"/>
	<outline>
		<contour>
			<point x="190" y="0" type="line"/>
			<point x="273" y="0" type="line"/>
			<point x="273" y="260" type="line"/>
			<point x="391" y="260" type="line"/>
			<point x="535" y="260"/>
			<point x="633" y="325"/>
			<point x="633" y="463" type="curve"/>
			<point x="633" y="607"/>
			<point x="536" y="656"/>
			<point x="391" y="656" type="curve"/>
			<point x="190" y="656" type="line"/>
		</contour>
		<contour>
			<point x="273" y="328" type="line"/>
			<point x="273" y="589" type="line"/>
			<point x="381" y="589" type="line"/>
			<point x="494" y="589"/>
			<point x="550" y="558"/>
			<point x="550" y="463" type="curve"/>
			<point x="550" y="370"/>
			<point x="495" y="328"/>
			<point x="381" y="328" type="curve"/>
		</contour>
	</outline>
</glyph>
<glyph name="Q" format="2">
	<unicode hex="0051"/>
	<advance width="664"/>
	<outline>
		<contour>
			<point x="238" y="331" type="curve"/>
			<point x="238" y="494"/>
			<point x="315" y="595"/>
			<point x="432" y="595" type="curve"/>
			<point x="549" y="595"/>
			<point x="626" y="494"/>
			<point x="626" y="331" type="curve"/>
			<point x="626" y="163"/>
			<point x="549" y="57"/>
			<point x="432" y="57" type="curve"/>
			<point x="315" y="57"/>
			<point x="238" y="163"/>
		</contour>
		<contour>
			<point x="711" y="-84" type="line"/>
			<point x="693" y="-89"/>
			<point x="671" y="-94"/>
			<point x="642" y="-94" type="curve"/>
			<point x="571" y="-94"/>
			<point x="511" y="-66"/>
			<point x="481" y="-8" type="curve"/>
			<point x="620" y="16"/>
			<point x="713" y="142"/>
			<point x="713" y="331" type="curve"/>
			<point x="713" y="540"/>
			<point x="597" y="668"/>
			<point x="432" y="668" type="curve"/>
			<point x="267" y="668"/>
			<point x="152" y="541"/>
			<point x="152" y="331" type="curve"/>
			<point x="152" y="138"/>
			<point x="248" y="11"/>
			<point x="391" y="-9" type="curve"/>
			<point x="429" y="-99"/>
			<point x="512" y="-164"/>
			<point x="633" y="-164" type="curve"/>
			<point x="672" y="-164"/>
			<point x="707" y="-156"/>
			<point x="727" y="-149" type="curve"/>
		</contour>
	</outline>
</glyph>
<glyph name="R" format="2">
	<unicode hex="0052"/>
	<advance width="581"/>
	<outline>
		<contour>
			<point x="273" y="589" type="line"/>
			<point x="383" y="589" type="line"/>
			<point x="485" y="589"/>
			<point x="542" y="558"/>
			<point x="542" y="472" type="curve"/>
			<point x="542" y="387"/>
			<point x="485" y="345"/>
			<point x="383" y="345" type="curve"/>
			<point x="273" y="345" type="line"/>
		</contour>
		<contour>
			<point x="644" y="0" type="line"/>
			<point x="478" y="286" type="line"/>
			<point x="567" y="308"/>
			<point x="625" y="370"/>
			<point x="625" y="472" type="curve"/>
			<point x="625" y="608"/>
			<point x="529" y="656"/>
			<point x="395" y="656" type="curve"/>
			<point x="190" y="656" type="line"/>
			<point x="190" y="0" type="line"/>
			<point x="273" y="0" type="line"/>
			<point x="273" y="277" type="line"/>
			<point x="392" y="277" type="line"/>
			<point x="550" y="0" type="line"/>
		</contour>
	</outline>
</glyph>
<glyph name="S" format="2">
	<unicode hex="0053"/>
	<advance width="534"/>
	<outline>
		<contour>
			<point x="142" y="85" type="line"/>
			<point x="199" y="26"/>
			<point x="280" y="-12"/>
			<point x="372" y="-12" type="curve"/>
			<point x="510" y="-12"/>
			<point x="595" y="71"/>
			<point x="595" y="175" type="curve"/>
			<point x="595" y="272"/>
			<point x="536" y="317"/>
			<point x="460" y="350" type="curve"/>
			<point x="367" y="390" type="line"/>
			<point x="315" y="412"/>
			<point x="258" y="436"/>
			<point x="258" y="499" type="curve"/>
			<point x="258" y="558"/>
			<point x="307" y="595"/>
			<point x="380" y="595" type="curve"/>
			<point x="441" y="595"/>
			<point x="489" y="571"/>
			<point x="529" y="533" type="curve"/>
			<point x="574" y="587" type="line"/>
			<point x="527" y="635"/>
			<point x="458" y="668"/>
			<point x="380" y="668" type="curve"/>
			<point x="261" y="668"/>
			<point x="174" y="594"/>
			<point x="174" y="494" type="curve"/>
			<point x="174" y="398"/>
			<point x="245" y="351"/>
			<point x="307" y="325" type="curve"/>
			<point x="401" y="284" type="line"/>
			<point x="463" y="256"/>
			<point x="510" y="235"/>
			<point x="510" y="168" type="curve"/>
			<point x="510" y="104"/>
			<point x="459" y="61"/>
			<point x="373" y="61" type="curve"/>
			<point x="305" y="61"/>
			<point x="239" y="94"/>
			<point x="192" y="143" type="curve"/>
		</contour>
	</outline>
</glyph>
<glyph name="T" format="2">
	<unicode hex="0054"/>
	<advance width="536"/>
	<outline>
		<contour>
			<point x="326" y="0" type="line"/>
			<point x="410" y="0" type="line"/>
			<point x="410" y="586" type="line"/>
			<point x="608" y="586" type="line"/>
			<point x="608" y="656" type="line"/>
			<point x="128" y="656" type="line"/>
			<point x="128" y="586" type="line"/>
			<point x="326" y="586" type="line"/>
		</contour>
	</outline>
</glyph>
<glyph name="U" format="2">
	<unicode hex="0055"/>
	<advance width="645"/>
	<outline>
		<contour>
			<point x="187" y="271" type="line"/>
			<point x="187" y="60"/>
			<point x="289" y="-12"/>
			<point x="423" y="-12" type="curve"/>
			<point x="557" y="-12"/>
			<point x="658" y="60"/>
			<point x="658" y="271" type="curve"/>
			<point x="658" y="656" type="line"/>
			<point x="578" y="656" type="line"/>
			<point x="578" y="269" type="line"/>
			<point x="578" y="111"/>
			<point x="510" y="61"/>
			<point x="423" y="61" type="curve"/>
			<point x="337" y="61"/>
			<point x="270" y="111"/>
			<point x="270" y="269" type="curve"/>
			<point x="270" y="656" type="line"/>
			<point x="187" y="656" type="line"/>
		</contour>
	</outline>
</glyph>
<glyph name="V" format="2">
	<unicode hex="0056"/>
	<advance width="515"/>
	<outline>
		<contour>
			<point x="310" y="0" type="line"/>
			<point x="407" y="0" type="line"/>
			<point x="615" y="656" type="line"/>
			<point x="530" y="656" type="line"/>
			<point x="425" y="302" type="line"/>
			<point x="402" y="224"/>
			<point x="386" y="162"/>
			<point x="362" y="85" type="curve"/>
			<point x="358" y="85" type="line"/>
			<point x="333" y="162"/>
			<point x="318" y="224"/>
			<point x="294" y="302" type="curve"/>
			<point x="189" y="656" type="line"/>
			<point x="100" y="656" type="line"/>
		</contour>
	</outline>
</glyph>
<glyph name="W" format="2">
	<unicode hex="0057"/>
	<advance width="786"/>
	<outline>
		<contour>
			<point x="262" y="0" type="line"/>
			<point x="361" y="0" type="line"/>
			<point x="458" y="395" type="line"/>
			<point x="469" y="446"/>
			<point x="481" y="493"/>
			<point x="491" y="544" type="curve"/>
			<point x="495" y="544" type="line"/>
			<point x="505" y="493"/>
			<point x="515" y="446"/>
			<point x="527" y="395" type="curve"/>
			<point x="626" y="0" type="line"/>
			<point x="726" y="0" type="line"/>
			<point x="862" y="656" type="line"/>
			<point x="782" y="656" type="line"/>
			<point x="713" y="299" type="line"/>
			<point x="700" y="229"/>
			<point x="688" y="158"/>
			<point x="676" y="87" type="curve"/>
			<point x="672" y="87" type="line"/>
			<point x="656" y="158"/>
			<point x="640" y="230"/>
			<point x="624" y="299" type="curve"/>
			<point x="533" y="656" type="line"/>
			<point x="457" y="656" type="line"/>
			<point x="366" y="299" type="line"/>
			<point x="351" y="229"/>
			<point x="335" y="158"/>
			<point x="320" y="87" type="curve"/>
			<point x="316" y="87" type="line"/>
			<point x="304" y="158"/>
			<point x="290" y="228"/>
			<point x="278" y="299" type="curve"/>
			<point x="209" y="656" type="line"/>
			<point x="123" y="656" type="line"/>
		</contour>
	</outline>
</glyph>
<glyph name="X" format="2">
	<unicode hex="0058"/>
	<advance width="513"/>
	<outline>
		<contour>
			<point x="115" y="0" type="line"/>
			<point x="203" y="0" type="line"/>
			<point x="298" y="177" type="line"/>
			<point x="314" y="209"/>
			<point x="331" y="242"/>
			<point x="350" y="282" type="curve"/>
			<point x="354" y="282" type="line"/>
			<point x="375" y="242"/>
			<point x="393" y="209"/>
			<point x="410" y="177" type="curve"/>
			<point x="506" y="0" type="line"/>
			<point x="598" y="0" type="line"/>
			<point x="407" y="335" type="line"/>
			<point x="586" y="656" type="line"/>
			<point x="498" y="656" type="line"/>
			<point x="411" y="488" type="line"/>
			<point x="395" y="458"/>
			<point x="382" y="431"/>
			<point x="364" y="393" type="curve"/>
			<point x="360" y="393" type="line"/>
			<point x="340" y="431"/>
			<point x="326" y="458"/>
			<point x="309" y="488" type="curve"/>
			<point x="220" y="656" type="line"/>
			<point x="128" y="656" type="line"/>
			<point x="306" y="339" type="line"/>
		</contour>
	</outline>
</glyph>
<glyph name="Y" format="2">
	<unicode hex="0059"/>
	<advance width="476"/>
	<outline>
		<contour>
			<point x="296" y="0" type="line"/>
			<point x="380" y="0" type="line"/>
			<point x="380" y="254" type="line"/>
			<point x="577" y="656" type="line"/>
			<point x="490" y="656" type="line"/>
			<point x="406" y="471" type="line"/>
			<point x="386" y="423"/>
			<point x="363" y="377"/>
			<point x="340" y="328" type="curve"/>
			<point x="336" y="328" type="line"/>
			<point x="314" y="377"/>
			<point x="294" y="423"/>
			<point x="273" y="471" type="curve"/>
			<point x="188" y="656" type="line"/>
			<point x="99" y="656" type="line"/>
			<point x="296" y="254" type="line"/>
		</contour>
	</outline>
</glyph>
<glyph name="Z" format="2">
	<unicode hex="005A"/>
	<advance width="539"/>
	<outline>
		<contour>
			<point x="145" y="0" type="line"/>
			<point x="597" y="0" type="line"/>
			<point x="597" y="71" type="line"/>
			<point x="248" y="71" type="line"/>
			<point x="594" y="607" type="line"/>
			<point x="594" y="656" type="line"/>
			<point x="176" y="656" type="line"/>
			<point x="176" y="586" type="line"/>
			<point x="490" y="586" type="line"/>
			<point x="145" y="50" type="line"/>
		</contour>
	</outline>
</glyph>
<glyph name="a" format="2">
	<unicode hex="0061"/>
	<advance width="512"/>
	<outline>
		<contour>
			<point x="-42" y="126" type="curve"/>
			<point x="-42" y="39"/>
			<point x="19" y="-12"/>
			<point x="101" y="-12" type="curve"/>
			<point x="161" y="-12"/>
			<point x="215" y="20"/>
			<point x="262" y="58" type="curve"/>
			<point x="264" y="58" type="line"/>
			<point x="271" y="0" type="line"/>
			<point x="339" y="0" type="line"/>
			<point x="339" y="298" type="line"/>
			<point x="339" y="419"/>
			<point x="289" y="498"/>
			<point x="170" y="498" type="curve"/>
			<point x="92" y="498"/>
			<point x="24" y="464"/>
			<point x="-21" y="435" type="curve"/>
			<point x="12" y="378" type="line"/>
			<point x="50" y="404"/>
			<point x="100" y="430"/>
			<point x="157" y="430" type="curve"/>
			<point x="236" y="430"/>
			<point x="257" y="370"/>
			<point x="257" y="308" type="curve"/>
			<point x="50" y="285"/>
			<point x="-42" y="232"/>
		</contour>
		<contour>
			<point x="39" y="132" type="curve"/>
			<point x="39" y="194"/>
			<point x="94" y="234"/>
			<point x="257" y="254" type="curve"/>
			<point x="257" y="119" type="line"/>
			<point x="210" y="77"/>
			<point x="171" y="54"/>
			<point x="124" y="54" type="curve"/>
			<point x="76" y="54"/>
			<point x="39" y="77"/>
		</contour>
	</outline>
</glyph>
<glyph name="b" format="2">
	<unicode hex="0062"/>
	<advance width="555"/>
	<outline>
		<contour>
			<point x="-18" y="0" type="line"/>
			<point x="48" y="0" type="line"/>
			<point x="55" y="48" type="line"/>
			<point x="58" y="48" type="line"/>
			<point x="101" y="10"/>
			<point x="152" y="-12"/>
			<point x="197" y="-12" type="curve"/>
			<point x="308" y="-12"/>
			<point x="407" y="85"/>
			<point x="407" y="251" type="curve"/>
			<point x="407" y="401"/>
			<point x="340" y="498"/>
			<point x="214" y="498" type="curve"/>
			<point x="160" y="498"/>
			<point x="106" y="469"/>
			<point x="62" y="430" type="curve"/>
			<point x="64" y="518" type="line"/>
			<point x="64" y="712" type="line"/>
			<point x="-18" y="712" type="line"/>
		</contour>
		<contour>
			<point x="64" y="108" type="curve"/>
			<point x="64" y="363" type="line"/>
			<point x="110" y="406"/>
			<point x="153" y="429"/>
			<point x="194" y="429" type="curve"/>
			<point x="286" y="429"/>
			<point x="322" y="357"/>
			<point x="322" y="250" type="curve"/>
			<point x="322" y="130"/>
			<point x="263" y="57"/>
			<point x="183" y="57" type="curve"/>
			<point x="151" y="57"/>
			<point x="107" y="71"/>
		</contour>
	</outline>
</glyph>
<glyph name="c" format="2">
	<unicode hex="0063"/>
	<advance width="456"/>
	<outline>
		<contour>
			<point x="-54" y="242" type="curve"/>
			<point x="-54" y="81"/>
			<point x="45" y="-12"/>
			<point x="174" y="-12" type="curve"/>
			<point x="232" y="-12"/>
			<point x="288" y="12"/>
			<point x="332" y="510" type="curve"/>
			<point x="295" y="105" type="line"/>
			<point x="266" y="79"/>
			<point x="227" y="56"/>
			<point x="181" y="56" type="curve"/>
			<point x="92" y="56"/>
			<point x="31" y="131"/>
			<point x="31" y="242" type="curve"/>
			<point x="31" y="354"/>
			<point x="95" y="430"/>
			<point x="183" y="430" type="curve"/>
			<point x="222" y="430"/>
			<point x="252" y="412"/>
			<point x="281" y="387" type="curve"/>
			<point x="322" y="440" type="line"/>
			<point x="289" y="471"/>
			<point x="244" y="498"/>
			<point x="180" y="498" type="curve"/>
			<point x="55" y="498"/>
			<point x="-54" y="405"/>
		</contour>
	</outline>
</glyph>
<glyph name="d" format="2">
	<unicode hex="0064"/>
	<advance width="555"/>
	<outline>
		<contour>
			<point x="-53" y="242" type="curve"/>
			<point x="-53" y="80"/>
			<point x="26" y="-12"/>
			<point x="148" y="-12" type="curve"/>
			<point x="205" y="-12"/>
			<point x="257" y="20"/>
			<point x="295" y="57" type="curve"/>
			<point x="298" y="57" type="line"/>
			<point x="305" y="0" type="line"/>
			<point x="373" y="0" type="line"/>
			<point x="373" y="712" type="line"/>
			<point x="290" y="712" type="line"/>
			<point x="290" y="525" type="line"/>
			<point x="294" y="442" type="line"/>
			<point x="251" y="477"/>
			<point x="214" y="498"/>
			<point x="158" y="498" type="curve"/>
			<point x="47" y="498"/>
			<point x="-53" y="400"/>
		</contour>
		<contour>
			<point x="32" y="243" type="curve"/>
			<point x="32" y="354"/>
			<point x="94" y="429"/>
			<point x="172" y="429" type="curve"/>
			<point x="212" y="429"/>
			<point x="249" y="415"/>
			<point x="290" y="378" type="curve"/>
			<point x="290" y="124" type="line"/>
			<point x="250" y="79"/>
			<point x="211" y="57"/>
			<point x="166" y="57" type="curve"/>
			<point x="81" y="57"/>
			<point x="32" y="127"/>
		</contour>
	</outline>
</glyph>
<glyph name="e" format="2">
	<unicode hex="0065"/>
	<advance width="496"/>
	<outline>
		<contour>
			<point x="-54" y="242" type="curve"/>
			<point x="-54" y="83"/>
			<point x="49" y="-12"/>
			<point x="179" y="-12" type="curve"/>
			<point x="245" y="-12"/>
			<point x="297" y="11"/>
			<point x="339" y="38" type="curve"/>
			<point x="310" y="92" type="line"/>
			<point x="274" y="69"/>
			<point x="235" y="54"/>
			<point x="189" y="54" type="curve"/>
			<point x="96" y="54"/>
			<point x="33" y="120"/>
			<point x="27" y="225" type="curve"/>
			<point x="355" y="225" type="line"/>
			<point x="357" y="237"/>
			<point x="358" y="253"/>
			<point x="358" y="270" type="curve"/>
			<point x="358" y="409"/>
			<point x="288" y="498"/>
			<point x="164" y="498" type="curve"/>
			<point x="53" y="498"/>
			<point x="-54" y="401"/>
		</contour>
		<contour>
			<point x="26" y="279" type="line"/>
			<point x="36" y="377"/>
			<point x="98" y="433"/>
			<point x="166" y="433" type="curve"/>
			<point x="242" y="433"/>
			<point x="286" y="378"/>
			<point x="286" y="279" type="curve"/>
		</contour>
	</outline>
</glyph>
<glyph name="f" format="2">
	<unicode hex="0066"/>
	<advance width="292"/>
	<outline>
		<contour>
			<point x="219" y="708" type="line"/>
			<point x="197" y="717"/>
			<point x="168" y="724"/>
			<point x="138" y="724" type="curve"/>
			<point x="41" y="724"/>
			<point x="-4" y="662"/>
			<point x="-4" y="563" type="curve"/>
			<point x="-4" y="486" type="line"/>
			<point x="-70" y="481" type="line"/>
			<point x="-70" y="419" type="line"/>
			<point x="-4" y="419" type="line"/>
			<point x="-4" y="0" type="line"/>
			<point x="78" y="0" type="line"/>
			<point x="78" y="419" type="line"/>
			<point x="181" y="419" type="line"/>
			<point x="181" y="486" type="line"/>
			<point x="78" y="486" type="line"/>
			<point x="78" y="563" type="line"/>
			<point x="78" y="625"/>
			<point x="100" y="657"/>
			<point x="146" y="657" type="curve"/>
			<point x="164" y="657"/>
			<point x="183" y="653"/>
			<point x="201" y="645" type="curve"/>
		</contour>
	</outline>
</glyph>
<glyph name="g" format="2">
	<unicode hex="0067"/>
	<advance width="504"/>
	<outline>
		<contour>
			<point x="17" y="-82" type="curve"/>
			<point x="17" y="-54"/>
			<point x="32" y="-25"/>
			<point x="67" y="0" type="curve"/>
			<point x="88" y="-6"/>
			<point x="111" y="-8"/>
			<point x="130" y="-8" type="curve"/>
			<point x="214" y="-8" type="line"/>
			<point x="277" y="-8"/>
			<point x="312" y="-23"/>
			<point x="312" y="-68" type="curve"/>
			<point x="312" y="-119"/>
			<point x="251" y="-167"/>
			<point x="158" y="-167" type="curve"/>
			<point x="70" y="-167"/>
			<point x="17" y="-134"/>
		</contour>
		<contour>
			<point x="-55" y="-93" type="curve"/>
			<point x="-55" y="-177"/>
			<point x="27" y="-224"/>
			<point x="146" y="-175" type="curve"/>
			<point x="297" y="-224"/>
			<point x="392" y="-146"/>
			<point x="392" y="-56" type="curve"/>
			<point x="392" y="25"/>
			<point x="335" y="60"/>
			<point x="222" y="60" type="curve"/>
			<point x="128" y="60" type="line"/>
			<point x="62" y="60"/>
			<point x="42" y="82"/>
			<point x="42" y="113" type="curve"/>
			<point x="42" y="140"/>
			<point x="56" y="156"/>
			<point x="73" y="171" type="curve"/>
			<point x="95" y="160"/>
			<point x="122" y="154"/>
			<point x="146" y="196" type="curve"/>
			<point x="245" y="154"/>
			<point x="324" y="219"/>
			<point x="324" y="323" type="curve"/>
			<point x="324" y="364"/>
			<point x="307" y="401"/>
			<point x="284" y="423" type="curve"/>
			<point x="384" y="423" type="line"/>
			<point x="384" y="486" type="line"/>
			<point x="215" y="486" type="line"/>
			<point x="197" y="493"/>
			<point x="173" y="498"/>
			<point x="146" y="454" type="curve"/>
			<point x="47" y="498"/>
			<point x="-37" y="431"/>
			<point x="-37" y="325" type="curve"/>
			<point x="-37" y="267"/>
			<point x="-6" y="220"/>
			<point x="26" y="194" type="curve"/>
			<point x="26" y="190" type="line"/>
			<point x="1" y="173"/>
			<point x="-27" y="141"/>
			<point x="-27" y="100" type="curve"/>
			<point x="-27" y="62"/>
			<point x="-8" y="36"/>
			<point x="16" y="21" type="curve"/>
			<point x="16" y="17" type="line"/>
			<point x="-28" y="-13"/>
			<point x="-55" y="-52"/>
		</contour>
		<contour>
			<point x="146" y="209" type="curve"/>
			<point x="90" y="209"/>
			<point x="43" y="254"/>
			<point x="43" y="325" type="curve"/>
			<point x="43" y="396"/>
			<point x="89" y="438"/>
			<point x="146" y="438" type="curve"/>
			<point x="203" y="438"/>
			<point x="249" y="396"/>
			<point x="249" y="325" type="curve"/>
			<point x="249" y="254"/>
			<point x="202" y="209"/>
		</contour>
	</outline>
</glyph>
<glyph name="h" format="2">
	<unicode hex="0068"/>
	<advance width="544"/>
	<outline>
		<contour>
			<point x="-18" y="0" type="line"/>
			<point x="64" y="0" type="line"/>
			<point x="64" y="352" type="line"/>
			<point x="113" y="401"/>
			<point x="147" y="427"/>
			<point x="197" y="427" type="curve"/>
			<point x="261" y="427"/>
			<point x="289" y="388"/>
			<point x="289" y="297" type="curve"/>
			<point x="289" y="0" type="line"/>
			<point x="371" y="0" type="line"/>
			<point x="371" y="308" type="line"/>
			<point x="371" y="432"/>
			<point x="325" y="498"/>
			<point x="223" y="498" type="curve"/>
			<point x="156" y="498"/>
			<point x="107" y="462"/>
			<point x="61" y="418" type="curve"/>
			<point x="64" y="518" type="line"/>
			<point x="64" y="712" type="line"/>
			<point x="-18" y="712" type="line"/>
		</contour>
	</outline>
</glyph>
<glyph name="i" format="2">
	<unicode hex="0069"/>
	<advance width="246"/>
	<outline>
		<contour>
			<point x="24" y="586" type="curve"/>
			<point x="56" y="586"/>
			<point x="81" y="608"/>
			<point x="81" y="639" type="curve"/>
			<point x="81" y="671"/>
			<point x="56" y="692"/>
			<point x="24" y="692" type="curve"/>
			<point x="-8" y="692"/>
			<point x="-33" y="671"/>
			<point x="-33" y="639" type="curve"/>
			<point x="-33" y="608"/>
			<point x="-8" y="586"/>
		</contour>
		<contour>
			<point x="-18" y="0" type="line"/>
			<point x="64" y="0" type="line"/>
			<point x="64" y="486" type="line"/>
			<point x="-18" y="486" type="line"/>
		</contour>
	</outline>
</glyph>
<glyph name="j" format="2">
	<unicode hex="006A"/>
	<advance width="247"/>
	<outline>
		<contour>
			<point x="-17" y="-55" type="line"/>
			<point x="-17" y="-114"/>
			<point x="-29" y="-150"/>
			<point x="-77" y="-150" type="curve"/>
			<point x="-94" y="-150"/>
			<point x="-111" y="-146"/>
			<point x="-123" y="-142" type="curve"/>
			<point x="-140" y="-204" type="line"/>
			<point x="-123" y="-211"/>
			<point x="-98" y="-217"/>
			<point x="-68" y="-217" type="curve"/>
			<point x="29" y="-217"/>
			<point x="65" y="-154"/>
			<point x="65" y="-55" type="curve"/>
			<point x="65" y="486" type="line"/>
			<point x="-17" y="486" type="line"/>
		</contour>
		<contour>
			<point x="25" y="586" type="curve"/>
			<point x="56" y="586"/>
			<point x="81" y="608"/>
			<point x="81" y="639" type="curve"/>
			<point x="81" y="671"/>
			<point x="56" y="692"/>
			<point x="25" y="692" type="curve"/>
			<point x="-7" y="692"/>
			<point x="-32" y="671"/>
			<point x="-32" y="639" type="curve"/>
			<point x="-32" y="608"/>
			<point x="-7" y="586"/>
		</contour>
	</outline>
</glyph>
<glyph name="k" format="2">
	<unicode hex="006B"/>
	<advance width="495"/>
	<outline>
		<contour>
			<point x="-18" y="0" type="line"/>
			<point x="63" y="0" type="line"/>
			<point x="63" y="128" type="line"/>
			<point x="154" y="234" type="line"/>
			<point x="296" y="0" type="line"/>
			<point x="386" y="0" type="line"/>
			<point x="201" y="291" type="line"/>
			<point x="364" y="486" type="line"/>
			<point x="273" y="486" type="line"/>
			<point x="66" y="230" type="line"/>
			<point x="63" y="230" type="line"/>
			<point x="63" y="712" type="line"/>
			<point x="-18" y="712" type="line"/>
		</contour>
	</outline>
</glyph>
<glyph name="l" format="2">
	<unicode hex="006C"/>
	<advance width="255"/>
	<outline>
		<contour>
			<point x="-18" y="98" type="line"/>
			<point x="-18" y="27"/>
			<point x="7" y="-12"/>
			<point x="69" y="-12" type="curve"/>
			<point x="91" y="-12"/>
			<point x="105" y="-9"/>
			<point x="116" y="-4" type="curve"/>
			<point x="105" y="58" type="line"/>
			<point x="96" y="56"/>
			<point x="92" y="56"/>
			<point x="87" y="56" type="curve"/>
			<point x="75" y="56"/>
			<point x="64" y="66"/>
			<point x="64" y="92" type="curve"/>
			<point x="64" y="712" type="line"/>
			<point x="-18" y="712" type="line"/>
		</contour>
	</outline>
</glyph>
<glyph name="m" format="2">
	<unicode hex="006D"/>
	<advance width="829"/>
	<outline>
		<contour>
			<point x="-18" y="0" type="line"/>
			<point x="64" y="0" type="line"/>
			<point x="64" y="352" type="line"/>
			<point x="109" y="402"/>
			<point x="150" y="427"/>
			<point x="186" y="427" type="curve"/>
			<point x="248" y="427"/>
			<point x="277" y="388"/>
			<point x="277" y="297" type="curve"/>
			<point x="277" y="0" type="line"/>
			<point x="359" y="0" type="line"/>
			<point x="359" y="352" type="line"/>
			<point x="404" y="402"/>
			<point x="443" y="427"/>
			<point x="481" y="427" type="curve"/>
			<point x="542" y="427"/>
			<point x="571" y="388"/>
			<point x="571" y="297" type="curve"/>
			<point x="571" y="0" type="line"/>
			<point x="653" y="0" type="line"/>
			<point x="653" y="308" type="line"/>
			<point x="653" y="432"/>
			<point x="605" y="498"/>
			<point x="505" y="498" type="curve"/>
			<point x="446" y="498"/>
			<point x="396" y="460"/>
			<point x="345" y="405" type="curve"/>
			<point x="325" y="463"/>
			<point x="285" y="498"/>
			<point x="211" y="498" type="curve"/>
			<point x="153" y="498"/>
			<point x="102" y="462"/>
			<point x="60" y="416" type="curve"/>
			<point x="57" y="416" type="line"/>
			<point x="50" y="486" type="line"/>
			<point x="-18" y="486" type="line"/>
		</contour>
	</outline>
</glyph>
<glyph name="n" format="2">
	<unicode hex="006E"/>
	<advance width="547"/>
	<outline>
		<contour>
			<point x="-18" y="0" type="line"/>
			<point x="64" y="0" type="line"/>
			<point x="64" y="352" type="line"/>
			<point x="113" y="401"/>
			<point x="147" y="427"/>
			<point x="197" y="427" type="curve"/>
			<point x="261" y="427"/>
			<point x="289" y="388"/>
			<point x="289" y="297" type="curve"/>
			<point x="289" y="0" type="line"/>
			<point x="371" y="0" type="line"/>
			<point x="371" y="308" type="line"/>
			<point x="371" y="432"/>
			<point x="325" y="498"/>
			<point x="223" y="498" type="curve"/>
			<point x="156" y="498"/>
			<point x="106" y="462"/>
			<point x="60" y="416" type="curve"/>
			<point x="57" y="416" type="line"/>
			<point x="50" y="486" type="line"/>
			<point x="-18" y="486" type="line"/>
		</contour>
	</outline>
</glyph>
<glyph name="o" format="2">
	<unicode hex="006F"/>
	<advance width="542"/>
	<outline>
		<contour>
			<point x="-54" y="242" type="curve"/>
			<point x="-54" y="81"/>
			<point x="52" y="-12"/>
			<point x="171" y="-12" type="curve"/>
			<point x="290" y="-12"/>
			<point x="396" y="81"/>
			<point x="396" y="242" type="curve"/>
			<point x="396" y="405"/>
			<point x="290" y="498"/>
			<point x="171" y="498" type="curve"/>
			<point x="52" y="498"/>
			<point x="-54" y="405"/>
		</contour>
		<contour>
			<point x="31" y="242" type="curve"/>
			<point x="31" y="354"/>
			<point x="88" y="430"/>
			<point x="171" y="430" type="curve"/>
			<point x="255" y="430"/>
			<point x="311" y="354"/>
			<point x="311" y="242" type="curve"/>
			<point x="311" y="131"/>
			<point x="255" y="56"/>
			<point x="171" y="56" type="curve"/>
			<point x="88" y="56"/>
			<point x="31" y="131"/>
		</contour>
	</outline>
</glyph>
<glyph name="p" format="2">
	<unicode hex="0070"/>
	<advance width="555"/>
	<outline>
		<contour>
			<point x="62" y="44" type="line"/>
			<point x="107" y="9"/>
			<point x="152" y="-12"/>
			<point x="197" y="-12" type="curve"/>
			<point x="308" y="-12"/>
			<point x="407" y="85"/>
			<point x="407" y="250" type="curve"/>
			<point x="407" y="401"/>
			<point x="340" y="498"/>
			<point x="215" y="498" type="curve"/>
			<point x="158" y="498"/>
			<point x="104" y="467"/>
			<point x="60" y="430" type="curve"/>
			<point x="57" y="430" type="line"/>
			<point x="50" y="486" type="line"/>
			<point x="-18" y="486" type="line"/>
			<point x="-18" y="-205" type="line"/>
			<point x="64" y="-205" type="line"/>
			<point x="64" y="-41" type="line"/>
		</contour>
		<contour>
			<point x="64" y="108" type="curve"/>
			<point x="64" y="363" type="line"/>
			<point x="112" y="406"/>
			<point x="153" y="429"/>
			<point x="194" y="429" type="curve"/>
			<point x="286" y="429"/>
			<point x="322" y="357"/>
			<point x="322" y="250" type="curve"/>
			<point x="322" y="130"/>
			<point x="263" y="57"/>
			<point x="183" y="57" type="curve"/>
			<point x="151" y="57"/>
			<point x="108" y="71"/>
		</contour>
	</outline>
</glyph>
<glyph name="q" format="2">
	<unicode hex="0071"/>
	<advance width="550"/>
	<outline>
		<contour>
			<point x="-53" y="242" type="curve"/>
			<point x="-53" y="80"/>
			<point x="26" y="-12"/>
			<point x="148" y="-12" type="curve"/>
			<point x="204" y="-12"/>
			<point x="255" y="18"/>
			<point x="294" y="54" type="curve"/>
			<point x="290" y="-32" type="line"/>
			<point x="290" y="-205" type="line"/>
			<point x="373" y="-205" type="line"/>
			<point x="373" y="486" type="line"/>
			<point x="307" y="486" type="line"/>
			<point x="299" y="440" type="line"/>
			<point x="297" y="440" type="line"/>
			<point x="253" y="478"/>
			<point x="214" y="498"/>
			<point x="158" y="498" type="curve"/>
			<point x="47" y="498"/>
			<point x="-53" y="400"/>
		</contour>
		<contour>
			<point x="32" y="243" type="curve"/>
			<point x="32" y="354"/>
			<point x="94" y="429"/>
			<point x="172" y="429" type="curve"/>
			<point x="212" y="429"/>
			<point x="249" y="415"/>
			<point x="290" y="378" type="curve"/>
			<point x="290" y="124" type="line"/>
			<point x="250" y="79"/>
			<point x="211" y="57"/>
			<point x="166" y="57" type="curve"/>
			<point x="81" y="57"/>
			<point x="32" y="127"/>
		</contour>
	</outline>
</glyph>
<glyph name="r" format="2">
	<unicode hex="0072"/>
	<advance width="347"/>
	<outline>
		<contour>
			<point x="-18" y="0" type="line"/>
			<point x="64" y="0" type="line"/>
			<point x="64" y="312" type="line"/>
			<point x="97" y="394"/>
			<point x="146" y="424"/>
			<point x="187" y="424" type="curve"/>
			<point x="207" y="424"/>
			<point x="218" y="421"/>
			<point x="234" y="416" type="curve"/>
			<point x="250" y="488" type="line"/>
			<point x="234" y="495"/>
			<point x="219" y="498"/>
			<point x="198" y="498" type="curve"/>
			<point x="143" y="498"/>
			<point x="93" y="459"/>
			<point x="60" y="398" type="curve"/>
			<point x="57" y="398" type="line"/>
			<point x="50" y="486" type="line"/>
			<point x="-18" y="486" type="line"/>
		</contour>
	</outline>
</glyph>
<glyph name="s" format="2">
	<unicode hex="0073"/>
	<advance width="419"/>
	<outline>
		<contour>
			<point x="-72" y="55" type="line"/>
			<point x="-26" y="17"/>
			<point x="40" y="-12"/>
			<point x="109" y="-12" type="curve"/>
			<point x="224" y="-12"/>
			<point x="287" y="54"/>
			<point x="287" y="133" type="curve"/>
			<point x="287" y="225"/>
			<point x="209" y="254"/>
			<point x="139" y="280" type="curve"/>
			<point x="84" y="301"/>
			<point x="31" y="318"/>
			<point x="31" y="364" type="curve"/>
			<point x="31" y="401"/>
			<point x="59" y="434"/>
			<point x="120" y="434" type="curve"/>
			<point x="163" y="434"/>
			<point x="198" y="416"/>
			<point x="231" y="391" type="curve"/>
			<point x="270" y="443" type="line"/>
			<point x="233" y="473"/>
			<point x="180" y="498"/>
			<point x="119" y="498" type="curve"/>
			<point x="14" y="498"/>
			<point x="-48" y="438"/>
			<point x="-48" y="360" type="curve"/>
			<point x="-48" y="278"/>
			<point x="28" y="245"/>
			<point x="97" y="220" type="curve"/>
			<point x="150" y="200"/>
			<point x="208" y="178"/>
			<point x="208" y="128" type="curve"/>
			<point x="208" y="86"/>
			<point x="176" y="52"/>
			<point x="112" y="52" type="curve"/>
			<point x="54" y="52"/>
			<point x="11" y="76"/>
			<point x="-31" y="110" type="curve"/>
		</contour>
	</outline>
</glyph>
<glyph name="t" format="2">
	<unicode hex="0074"/>
	<advance width="338"/>
	<outline>
		<contour>
			<point x="-4" y="150" type="line"/>
			<point x="-4" y="54"/>
			<point x="31" y="-12"/>
			<point x="135" y="-12" type="curve"/>
			<point x="165" y="-12"/>
			<point x="198" y="-3"/>
			<point x="225" y="6" type="curve"/>
			<point x="209" y="68" type="line"/>
			<point x="193" y="62"/>
			<point x="171" y="55"/>
			<point x="154" y="55" type="curve"/>
			<point x="98" y="55"/>
			<point x="79" y="89"/>
			<point x="79" y="149" type="curve"/>
			<point x="79" y="419" type="line"/>
			<point x="210" y="419" type="line"/>
			<point x="210" y="486" type="line"/>
			<point x="79" y="486" type="line"/>
			<point x="79" y="622" type="line"/>
			<point x="10" y="622" type="line"/>
			<point x="0" y="486" type="line"/>
			<point x="-76" y="481" type="line"/>
			<point x="-76" y="419" type="line"/>
			<point x="-4" y="419" type="line"/>
		</contour>
	</outline>
</glyph>
<glyph name="u" format="2">
	<unicode hex="0075"/>
	<advance width="544"/>
	<outline>
		<contour>
			<point x="-25" y="178" type="line"/>
			<point x="-25" y="54"/>
			<point x="21" y="-12"/>
			<point x="124" y="-12" type="curve"/>
			<point x="191" y="-12"/>
			<point x="239" y="23"/>
			<point x="284" y="76" type="curve"/>
			<point x="287" y="76" type="line"/>
			<point x="294" y="0" type="line"/>
			<point x="362" y="0" type="line"/>
			<point x="362" y="486" type="line"/>
			<point x="280" y="486" type="line"/>
			<point x="280" y="141" type="line"/>
			<point x="234" y="84"/>
			<point x="199" y="59"/>
			<point x="149" y="59" type="curve"/>
			<point x="85" y="59"/>
			<point x="58" y="98"/>
			<point x="58" y="189" type="curve"/>
			<point x="58" y="486" type="line"/>
			<point x="-25" y="486" type="line"/>
		</contour>
	</outline>
</glyph>
<glyph name="v" format="2">
	<unicode hex="0076"/>
	<advance width="467"/>
	<outline>
		<contour>
			<point x="87" y="0" type="line"/>
			<point x="183" y="0" type="line"/>
			<point x="355" y="486" type="line"/>
			<point x="274" y="486" type="line"/>
			<point x="182" y="210" type="line"/>
			<point x="168" y="162"/>
			<point x="152" y="113"/>
			<point x="138" y="67" type="curve"/>
			<point x="134" y="67" type="line"/>
			<point x="119" y="113"/>
			<point x="103" y="162"/>
			<point x="89" y="210" type="curve"/>
			<point x="-3" y="486" type="line"/>
			<point x="-88" y="486" type="line"/>
		</contour>
	</outline>
</glyph>
<glyph name="w" format="2">
	<unicode hex="0077"/>
	<advance width="718"/>
	<outline>
		<contour>
			<point x="59" y="0" type="line"/>
			<point x="155" y="0" type="line"/>
			<point x="223" y="260" type="line"/>
			<point x="236" y="306"/>
			<point x="246" y="352"/>
			<point x="257" y="401" type="curve"/>
			<point x="261" y="401" type="line"/>
			<point x="273" y="352"/>
			<point x="282" y="307"/>
			<point x="294" y="261" type="curve"/>
			<point x="364" y="0" type="line"/>
			<point x="464" y="0" type="line"/>
			<point x="594" y="486" type="line"/>
			<point x="516" y="486" type="line"/>
			<point x="445" y="205" type="line"/>
			<point x="435" y="159"/>
			<point x="426" y="115"/>
			<point x="415" y="70" type="curve"/>
			<point x="411" y="70" type="line"/>
			<point x="400" y="115"/>
			<point x="389" y="159"/>
			<point x="377" y="205" type="curve"/>
			<point x="301" y="486" type="line"/>
			<point x="221" y="486" type="line"/>
			<point x="146" y="205" type="line"/>
			<point x="134" y="160"/>
			<point x="124" y="115"/>
			<point x="113" y="70" type="curve"/>
			<point x="109" y="70" type="line"/>
			<point x="100" y="115"/>
			<point x="91" y="159"/>
			<point x="80" y="205" type="curve"/>
			<point x="8" y="486" type="line"/>
			<point x="-76" y="486" type="line"/>
		</contour>
	</outline>
</glyph>
<glyph name="x" format="2">
	<unicode hex="0078"/>
	<advance width="446"/>
	<outline>
		<contour>
			<point x="-86" y="0" type="line"/>
			<point x="0" y="0" type="line"/>
			<point x="66" y="113" type="line"/>
			<point x="82" y="143"/>
			<point x="98" y="172"/>
			<point x="115" y="200" type="curve"/>
			<point x="119" y="200" type="line"/>
			<point x="137" y="172"/>
			<point x="155" y="142"/>
			<point x="172" y="113" type="curve"/>
			<point x="243" y="0" type="line"/>
			<point x="332" y="0" type="line"/>
			<point x="174" y="245" type="line"/>
			<point x="321" y="486" type="line"/>
			<point x="235" y="486" type="line"/>
			<point x="176" y="379" type="line"/>
			<point x="161" y="353"/>
			<point x="146" y="325"/>
			<point x="132" y="298" type="curve"/>
			<point x="128" y="298" type="line"/>
			<point x="111" y="325"/>
			<point x="95" y="353"/>
			<point x="80" y="379" type="curve"/>
			<point x="15" y="486" type="line"/>
			<point x="-74" y="486" type="line"/>
			<point x="73" y="254" type="line"/>
		</contour>
	</outline>
</glyph>
<glyph name="y" format="2">
	<unicode hex="0079"/>
	<advance width="467"/>
	<outline>
		<contour>
			<point x="-51" y="-134" type="curve"/>
			<point x="-67" y="-199" type="line"/>
			<point x="-51" y="-205"/>
			<point x="-32" y="-209"/>
			<point x="-10" y="-209" type="curve"/>
			<point x="88" y="-209"/>
			<point x="138" y="-136"/>
			<point x="172" y="-40" type="curve"/>
			<point x="355" y="486" type="line"/>
			<point x="275" y="486" type="line"/>
			<point x="188" y="217" type="line"/>
			<point x="175" y="174"/>
			<point x="161" y="124"/>
			<point x="147" y="80" type="curve"/>
			<point x="143" y="80" type="line"/>
			<point x="128" y="125"/>
			<point x="111" y="175"/>
			<point x="96" y="217" type="curve"/>
			<point x="-3" y="486" type="line"/>
			<point x="-88" y="486" type="line"/>
			<point x="107" y="-1" type="line"/>
			<point x="96" y="-37" type="line"/>
			<point x="76" y="-97"/>
			<point x="41" y="-141"/>
			<point x="-14" y="-141" type="curve"/>
			<point x="-26" y="-141"/>
			<point x="-41" y="-137"/>
		</contour>
	</outline>
</glyph>
<glyph name="z" format="2">
	<unicode hex="007A"/>
	<advance width="425"/>
	<outline>
		<contour>
			<point x="-69" y="0" type="line"/>
			<point x="299" y="0" type="line"/>
			<point x="299" y="67" type="line"/>
			<point x="35" y="67" type="line"/>
			<point x="291" y="442" type="line"/>
			<point x="291" y="486" type="line"/>
			<point x="-41" y="486" type="line"/>
			<point x="-41" y="419" type="line"/>
			<point x="187" y="419" type="line"/>
			<point x="-69" y="44" type="line"/>
		</contour>
	</outline>
</glyph>
